<?xml version="1.0" encoding="UTF-8" standalone="no"?>
<!-- Created with Inkscape (http://www.inkscape.org/) -->

<svg
   width="132.29155mm"
   height="132.29167mm"
   viewBox="0 0 132.29155 132.29167"
   version="1.1"
   id="svg1"
   xml:space="preserve"
   xmlns="http://www.w3.org/2000/svg"
   xmlns:svg="http://www.w3.org/2000/svg"><defs
     id="defs1" /><g
     id="layer1"
     transform="translate(1153.9118,-335.48118)"><path
       id="path6"
       style="fill:#00cc00;fill-opacity:1;stroke-width:0.499999;stroke-linecap:round"
       d="m -1087.766,335.48117 a 66.1457,66.1457 0 0 0 -66.1458,66.14584 66.1457,66.1457 0 0 0 26.9915,53.31225 v -55.39317 h -9.7781 v -4.2e-4 l 23.6254,-29.23956 23.6254,29.23998 h -9.778 v 67.22631 a 66.1457,66.1457 0 0 0 11.4596,1.00044 66.1457,66.1457 0 0 0 66.1458,-66.14583 66.1457,66.1457 0 0 0 -26.991,-53.31185 v 55.39318 h 9.778 l -23.6254,29.23997 -23.6254,-29.23955 v -4.2e-4 h 9.7781 v -67.22672 a 66.1457,66.1457 0 0 0 -11.4601,-1.00045 z" /></g></svg>
