<?xml version="1.0" encoding="UTF-8" standalone="no"?>
<!-- Created with Inkscape (http://www.inkscape.org/) -->

<svg
   width="132.29167mm"
   height="132.29167mm"
   viewBox="0 0 132.29167 132.29167"
   version="1.1"
   id="svg1"
   xml:space="preserve"
   xmlns="http://www.w3.org/2000/svg"
   xmlns:svg="http://www.w3.org/2000/svg"><defs
     id="defs1" /><g
     id="layer1"><path
       id="path1"
       style="fill:#00cc00;fill-opacity:1;stroke:none;stroke-width:0.264583"
       d="M 120.20045,0.00471911 C 116.81778,-0.0880809 113.42006,1.1884493 110.90702,3.7755095 106.43938,8.37473 106.23124,15.600681 110.43571,20.439811 L 89.795586,46.081684 c -4.816401,-2.56759 -10.754111,-1.68094 -14.593332,2.17587 L 59.437603,37.542613 c 1.76829,-3.96843 1.30246,-8.568451 -1.2292,-12.101561 -2.531651,-3.538781 -6.750991,-5.481851 -11.095891,-5.119071 -4.350369,0.36855 -8.184328,2.993321 -10.081665,6.900291 -1.897332,3.90697 -1.584374,8.523111 0.835082,12.134491 L 19.510581,56.993895 c -3.210933,-2.27158 -7.318838,-2.88609 -11.0573105,-1.64694 -3.7442253,1.23909 -6.6644206,4.18018 -7.86578874,7.90875 -1.20128312,3.734051 -0.53807206,7.816071 1.78592414,10.980731 2.3239852,3.170381 6.0279986,5.039471 9.9686661,5.045091 l 0.0112,-0.0212 c 4.552558,0.005 8.741982,-2.48481 10.891946,-6.475521 2.15557,-3.99081 1.919561,-8.835611 -0.600823,-12.603061 L 40.999748,42.544553 h 0.0053 c 4.911824,3.493981 11.653444,2.929951 15.907974,-1.34001 l 15.761902,10.717641 c -1.82993,4.096881 -1.26189,8.852851 1.46621,12.419482 2.72809,3.561 7.195581,5.36391 11.647101,4.69977 4.457151,-0.65863 8.195821,-3.68398 9.756451,-7.886861 1.5661,-4.20293 0.70098,-8.913571 -2.2517,-12.301591 L 113.93311,23.243982 c 5.65838,3.04195 12.71574,1.29367 16.28004,-4.031111 3.55898,-5.33045 2.44696,-12.4734612 -2.56589,-16.4807116 -2.19312,-1.7533202 -4.8159,-2.65441028 -7.44687,-2.72669029 z M 107.6907,50.463544 c -1.21818,0 -2.20485,0.98105 -2.20485,2.1923 v 77.443466 c 0,0.58094 0.23152,1.13993 0.64492,1.55107 0.41344,0.41098 0.97561,0.64129 1.55993,0.64129 h 22.39573 c 0.58428,0 1.14648,-0.23015 1.55993,-0.64129 0.41339,-0.41098 0.64491,-0.97008 0.64491,-1.55107 V 52.655844 c 0,-0.58094 -0.23151,-1.13993 -0.64491,-1.55101 -0.41344,-0.41098 -0.97561,-0.64129 -1.55993,-0.64129 z M 37.369863,76.590427 c -1.218174,0 -2.20485,0.98111 -2.20485,2.19236 v 51.316523 c 0,0.58099 0.231519,1.13998 0.644919,1.55107 0.413384,0.41098 0.97561,0.64129 1.559931,0.64129 h 22.39573 c 0.58428,0 1.14648,-0.23015 1.55993,-0.64129 0.41344,-0.41098 0.64492,-0.97008 0.64492,-1.55107 V 78.782787 c 0,-0.58094 -0.23152,-1.13998 -0.64492,-1.55107 -0.41339,-0.41098 -0.9756,-0.64129 -1.55993,-0.64129 z m 35.167301,13.685511 c -1.21818,0 -2.20484,0.9811 -2.20484,2.19236 v 37.631012 c 0,0.58094 0.23152,1.13993 0.64492,1.55107 0.41344,0.41098 0.97559,0.64129 1.55992,0.64129 h 22.384712 c 0.58427,0 1.14648,-0.23015 1.55993,-0.64129 0.41344,-0.41098 0.64492,-0.97008 0.64492,-1.55107 V 92.468298 c 0,-0.58094 -0.23152,-1.13998 -0.64492,-1.55107 -0.41338,-0.41098 -0.97561,-0.64129 -1.55993,-0.64129 z M 2.2053109,102.79405 c -1.21817311,0 -2.20484920008,0.9811 -2.20484920008,2.19236 v 25.1129 c 0,0.58094 0.23151802008,1.13998 0.64491806008,1.55107 0.41343804,0.41098 0.97561014,0.64129 1.55993114,0.64129 H 24.601044 c 0.584284,0 1.146472,-0.23015 1.559926,-0.64129 0.413437,-0.41098 0.644919,-0.97008 0.644919,-1.55107 v -25.1129 c 0,-0.58094 -0.231519,-1.13998 -0.644919,-1.55107 -0.413385,-0.41098 -0.9756,-0.64129 -1.559926,-0.64129 z" /></g></svg>
